<svg xmlns="http://www.w3.org/2000/svg" xmlns:xlink="http://www.w3.org/1999/xlink" width="2500" zoomAndPan="magnify" viewBox="0 0 1874.88 1874.999927" height="2500" preserveAspectRatio="xMidYMid meet" version="1.0"><defs><g/><clipPath id="78f41da4e0"><path d="M 1399 508 L 1874.761719 508 L 1874.761719 755 L 1399 755 Z M 1399 508 " clip-rule="nonzero"/></clipPath><clipPath id="dae444fd12"><rect x="0" width="476" y="0" height="247"/></clipPath><clipPath id="bb0c1c446f"><path d="M 1173 769 L 1874.761719 769 L 1874.761719 1345 L 1173 1345 Z M 1173 769 " clip-rule="nonzero"/></clipPath><clipPath id="7926b75602"><rect x="0" width="702" y="0" height="576"/></clipPath><clipPath id="610e332f28"><path d="M 12 663 L 1556.148438 663 L 1556.148438 1226.667969 L 12 1226.667969 Z M 12 663 " clip-rule="nonzero"/></clipPath></defs><g clip-path="url(#78f41da4e0)"><g transform="matrix(1, 0, 0, 1, 1399, 508)"><g clip-path="url(#dae444fd12)"><g fill="#000000" fill-opacity="1"><g transform="translate(0.241283, 200.836315)"><g><path d="M 7.265625 0 L 7.265625 -9.625 C 7.265625 -11.832031 8.332031 -13.148438 10.46875 -13.578125 L 22.984375 -16.25 L 22.984375 -140.984375 C 15.929688 -142.265625 11.757812 -143.117188 10.46875 -143.546875 C 8.332031 -143.972656 7.265625 -145.289062 7.265625 -147.5 L 7.265625 -157.125 L 73.109375 -157.125 C 100.972656 -157.125 118.328125 -149.179688 125.171875 -133.296875 C 127.234375 -128.234375 128.265625 -123.066406 128.265625 -117.796875 C 128.265625 -112.160156 127.695312 -107.773438 126.5625 -104.640625 C 125.132812 -100.648438 123.382812 -97.375 121.3125 -94.8125 C 116.257812 -88.46875 108.816406 -83.726562 98.984375 -80.59375 C 121.992188 -76.03125 133.5 -64.054688 133.5 -44.671875 C 133.5 -31.140625 128.691406 -20.414062 119.078125 -12.5 C 109.242188 -4.164062 95.664062 0 78.34375 0 Z M 44.25 -16.890625 L 78.34375 -16.890625 L 78.140625 -16.671875 C 95.453125 -16.671875 106.316406 -22.335938 110.734375 -33.671875 C 111.941406 -37.015625 112.546875 -40.828125 112.546875 -45.109375 C 112.546875 -53.234375 109.765625 -59.644531 104.203125 -64.34375 C 98.648438 -69.050781 89.960938 -71.40625 78.140625 -71.40625 L 44.25 -71.40625 Z M 44.25 -86.6875 L 72.25 -86.6875 C 89.78125 -86.6875 100.722656 -91.925781 105.078125 -102.40625 C 106.566406 -106.53125 107.3125 -110.195312 107.3125 -113.40625 C 107.3125 -122.53125 104.535156 -129.226562 98.984375 -133.5 C 93.273438 -137.914062 84.648438 -140.125 73.109375 -140.125 L 44.25 -140.125 Z M 44.25 -86.6875 "/></g></g></g><g fill="#000000" fill-opacity="1"><g transform="translate(138.098407, 200.836315)"><g><path d="M 5.453125 0 L 5.453125 -8.765625 C 5.453125 -10.617188 6.414062 -11.796875 8.34375 -12.296875 L 17.109375 -14.859375 L 73.96875 -156.703125 L 95.453125 -156.703125 L 152.09375 -14.859375 L 160.859375 -12.296875 C 162.785156 -11.796875 163.75 -10.617188 163.75 -8.765625 L 163.75 0 L 118.640625 0 L 118.640625 -8.765625 C 118.640625 -10.691406 119.675781 -11.867188 121.75 -12.296875 L 130.71875 -14.859375 L 118.4375 -46.390625 L 50.765625 -46.390625 L 38.484375 -14.859375 L 47.453125 -12.296875 C 49.378906 -11.867188 50.34375 -10.691406 50.34375 -8.765625 L 50.34375 0 Z M 56.65625 -61.78125 L 112.546875 -61.78125 L 89.359375 -122.171875 C 87.578125 -126.234375 85.972656 -131.113281 84.546875 -136.8125 C 82.765625 -130.113281 81.304688 -125.160156 80.171875 -121.953125 Z M 56.65625 -61.78125 "/></g></g></g><g fill="#000000" fill-opacity="1"><g transform="translate(307.053571, 200.836315)"><g><path d="M 3.734375 -147.5 L 3.734375 -156.703125 L 58.6875 -156.703125 L 58.6875 -147.5 C 58.6875 -145.21875 57.507812 -143.832031 55.15625 -143.34375 C 52.164062 -142.769531 47.351562 -141.984375 40.71875 -140.984375 L 40.71875 -61.78125 C 40.71875 -48.03125 44.351562 -37.195312 51.625 -29.28125 C 59.039062 -21.019531 69.195312 -16.890625 82.09375 -16.890625 C 94.988281 -16.890625 105.140625 -21.019531 112.546875 -29.28125 C 119.816406 -37.40625 123.453125 -48.128906 123.453125 -61.453125 L 123.453125 -140.984375 C 116.328125 -142.054688 111.519531 -142.84375 109.03125 -143.34375 C 106.675781 -143.832031 105.5 -145.21875 105.5 -147.5 L 105.5 -156.703125 L 160.21875 -156.703125 L 160.21875 -147.296875 C 160.21875 -145.015625 159.046875 -143.625 156.703125 -143.125 L 144.296875 -140.765625 L 144.296875 -61.25 C 144.296875 -43.363281 138.738281 -28.363281 127.625 -16.25 C 116.289062 -4.132812 101.039062 1.921875 81.875 1.921875 C 62.851562 1.921875 47.675781 -4.132812 36.34375 -16.25 C 25.082031 -28.289062 19.453125 -43.289062 19.453125 -61.25 L 19.453125 -140.765625 C 12.535156 -142.046875 8.398438 -142.90625 7.046875 -143.34375 C 4.835938 -143.769531 3.734375 -145.15625 3.734375 -147.5 Z M 3.734375 -147.5 "/></g></g></g><g fill="#000000" fill-opacity="1"><g transform="translate(470.954234, 200.836315)"><g/></g></g></g></g></g><g clip-path="url(#bb0c1c446f)"><g transform="matrix(1, 0, 0, 1, 1173, 769)"><g clip-path="url(#7926b75602)"><g fill="#000000" fill-opacity="1"><g transform="translate(87.393515, 444.297723)"><g><path d="M 46.921875 -23.8125 C 47.867188 -21.382812 49.550781 -20.640625 51.96875 -21.578125 C 54.394531 -22.523438 56.660156 -26.367188 58.765625 -33.109375 C 60.867188 -39.847656 62.710938 -43.425781 64.296875 -43.84375 C 65.847656 -43.144531 65.578125 -40.238281 63.484375 -35.125 C 63.265625 -34.601562 62.992188 -33.363281 62.671875 -31.40625 C 62.359375 -29.457031 62.054688 -27.882812 61.765625 -26.6875 C 61.472656 -25.5 61.054688 -23.9375 60.515625 -22 C 59.984375 -20.070312 59.429688 -18.457031 58.859375 -17.15625 C 58.296875 -15.863281 57.632812 -14.53125 56.875 -13.15625 C 55.363281 -10.40625 53.765625 -8.703125 52.078125 -8.046875 C 50.390625 -7.390625 47.972656 -6.820312 44.828125 -6.34375 C 41.679688 -5.875 39.914062 -5.992188 39.53125 -6.703125 C 39.144531 -7.410156 38.84375 -8.046875 38.625 -8.609375 C 34.832031 -18.328125 35.007812 -41.332031 39.15625 -77.625 C 36.726562 -76.675781 34.773438 -76.019531 33.296875 -75.65625 C 31.816406 -75.289062 30.675781 -75.707031 29.875 -76.90625 C 29.082031 -78.101562 29.164062 -78.992188 30.125 -79.578125 C 31.09375 -80.171875 32.171875 -80.59375 33.359375 -80.84375 C 34.546875 -81.09375 36.539062 -81.769531 39.34375 -82.875 C 42.164062 -103.78125 43.765625 -116.515625 44.140625 -121.078125 C 44.515625 -125.640625 44.375 -128.757812 43.71875 -130.4375 C 43.0625 -132.113281 42.457031 -133.382812 41.90625 -134.25 C 40.613281 -139.78125 42.460938 -148.414062 47.453125 -160.15625 C 52.453125 -171.90625 58.316406 -179.09375 65.046875 -181.71875 C 67.285156 -182.59375 70.644531 -182.9375 75.125 -182.75 C 79.613281 -182.5625 82.554688 -181.5 83.953125 -179.5625 C 85.359375 -177.632812 85.972656 -176.476562 85.796875 -176.09375 C 85.628906 -175.707031 85.003906 -175.519531 83.921875 -175.53125 C 82.847656 -175.539062 82.21875 -175.507812 82.03125 -175.4375 C 68.582031 -170.1875 58 -140.753906 50.28125 -87.140625 C 70.28125 -96.023438 89.570312 -108.234375 108.15625 -123.765625 C 126.738281 -139.304688 139.4375 -155.195312 146.25 -171.4375 C 150.3125 -180.332031 150.957031 -188.332031 148.1875 -195.4375 C 140.019531 -216.375 114.539062 -218.488281 71.75 -201.78125 C 47.269531 -192.226562 25.367188 -179.363281 6.046875 -163.1875 C -3.929688 -154.5625 -11.632812 -145.207031 -17.0625 -135.125 C -22.488281 -125.039062 -24.238281 -115.316406 -22.3125 -105.953125 C -22.125 -104.953125 -21.738281 -103.703125 -21.15625 -102.203125 C -20.570312 -100.710938 -19.253906 -99.128906 -17.203125 -97.453125 C -15.160156 -95.773438 -13.078125 -94.703125 -10.953125 -94.234375 C -8.828125 -93.773438 -5.929688 -93.394531 -2.265625 -93.09375 C 1.390625 -92.800781 3.878906 -92.476562 5.203125 -92.125 C 6.523438 -91.78125 7.070312 -91.078125 6.84375 -90.015625 C 6.613281 -88.960938 5.488281 -88.265625 3.46875 -87.921875 C -2.6875 -86.585938 -9.234375 -87.363281 -16.171875 -90.25 C -23.117188 -93.144531 -27.6875 -97.394531 -29.875 -103 C -30.53125 -104.675781 -31 -106.425781 -31.28125 -108.25 C -32.601562 -110.539062 -33.375 -111.96875 -33.59375 -112.53125 C -36.445312 -127.5625 -27.925781 -146.28125 -8.03125 -168.6875 C 8.019531 -185.507812 29.398438 -199.132812 56.109375 -209.5625 C 72.554688 -215.976562 89.691406 -220.082031 107.515625 -221.875 C 119.804688 -222.363281 130.101562 -220.25 138.40625 -215.53125 C 146.707031 -210.8125 152.242188 -204.898438 155.015625 -197.796875 C 159.242188 -186.953125 158.679688 -175.695312 153.328125 -164.03125 C 147.984375 -152.363281 140.863281 -142.203125 131.96875 -133.546875 C 110.976562 -112.867188 83.535156 -95.484375 49.640625 -81.390625 C 47.597656 -65.097656 46.394531 -52.035156 46.03125 -42.203125 C 45.675781 -32.367188 45.972656 -26.238281 46.921875 -23.8125 Z M 46.921875 -23.8125 "/></g></g></g><g fill="#000000" fill-opacity="1"><g transform="translate(238.44389, 385.330533)"><g><path d="M 33.671875 91.65625 C 33.535156 92.675781 33.304688 93.460938 32.984375 94.015625 C 32.660156 94.578125 31.179688 96.445312 28.546875 99.625 C 25.921875 102.8125 23.253906 104.929688 20.546875 105.984375 C 17.835938 107.046875 16.226562 106.925781 15.71875 105.625 C 15.5 105.0625 15.394531 104.238281 15.40625 103.15625 C 16.289062 95.488281 16.757812 45.675781 16.8125 -46.28125 C 11.3125 -43.269531 7.160156 -41.21875 4.359375 -40.125 C 1.554688 -39.03125 -0.875 -38.78125 -2.9375 -39.375 C -5.007812 -39.976562 -6.425781 -41.257812 -7.1875 -43.21875 C -7.957031 -45.175781 -6.550781 -47.769531 -2.96875 -51 C 0.613281 -54.238281 3.523438 -56.296875 5.765625 -57.171875 C 8.015625 -58.046875 10.175781 -58.023438 12.25 -57.109375 C 14.332031 -56.191406 15.65625 -55.84375 16.21875 -56.0625 L 17.0625 -56.390625 L 17.09375 -80.296875 C 16.8125 -90.960938 17.191406 -105.164062 18.234375 -122.90625 C 19.273438 -140.644531 20.84375 -155.09375 22.9375 -166.25 C 28.09375 -190.019531 36.929688 -204.347656 49.453125 -209.234375 L 56.515625 -211.015625 L 62.890625 -211.234375 C 69.546875 -210.171875 73.945312 -206.882812 76.09375 -201.375 C 78.25 -195.863281 79.070312 -189.347656 78.5625 -181.828125 C 77.738281 -169.015625 72.96875 -150.894531 64.25 -127.46875 C 55.53125 -104.039062 46.238281 -83.71875 36.375 -66.5 C 51.175781 -73.800781 60.773438 -78.304688 65.171875 -80.015625 C 69.566406 -81.734375 72.070312 -82.070312 72.6875 -81.03125 C 72.976562 -80.28125 71.550781 -78.695312 68.40625 -76.28125 C 65.257812 -73.875 51.800781 -65.875 28.03125 -52.28125 C 27.832031 12.832031 29.148438 49.570312 31.984375 57.9375 C 33.390625 62.113281 34.113281 65.21875 34.15625 67.25 C 34.195312 69.28125 34.207031 71.644531 34.1875 74.34375 C 34.164062 77.050781 34.15625 79.097656 34.15625 80.484375 C 34.164062 81.878906 34.179688 83.429688 34.203125 85.140625 C 34.234375 86.859375 34.1875 88.117188 34.0625 88.921875 C 33.945312 89.722656 33.816406 90.632812 33.671875 91.65625 Z M 69.1875 -182.6875 C 70.238281 -189.34375 69.816406 -195.097656 67.921875 -199.953125 C 66.023438 -204.816406 63.304688 -206.554688 59.765625 -205.171875 C 52.660156 -202.398438 46.144531 -189.304688 40.21875 -165.890625 C 36.78125 -152.046875 34.148438 -138.640625 32.328125 -125.671875 C 29.117188 -98.578125 27.84375 -79.234375 28.5 -67.640625 L 28 -62.28125 C 37.289062 -77.101562 45.816406 -96.363281 53.578125 -120.0625 C 61.335938 -143.769531 66.539062 -164.644531 69.1875 -182.6875 Z M 69.1875 -182.6875 "/></g></g></g><g fill="#000000" fill-opacity="1"><g transform="translate(318.593046, 354.041829)"><g><path d="M 26.421875 -6.765625 C 23.429688 -5.597656 19.859375 -5.222656 15.703125 -5.640625 C 11.554688 -6.066406 7.628906 -7.441406 3.921875 -9.765625 C 0.222656 -12.085938 -2.351562 -15.117188 -3.8125 -18.859375 C -5.269531 -22.597656 -5.8125 -26.476562 -5.4375 -30.5 C -4.769531 -39.800781 -1.722656 -49.765625 3.703125 -60.390625 C 9.140625 -71.015625 15.320312 -80.695312 22.25 -89.4375 C 29.175781 -98.175781 35 -104.21875 39.71875 -107.5625 C 44.445312 -110.914062 49.285156 -113.554688 54.234375 -115.484375 C 59.191406 -117.421875 63.9375 -117.820312 68.46875 -116.6875 C 73 -115.550781 75.8125 -113.578125 76.90625 -110.765625 C 77.269531 -109.835938 77.394531 -109.242188 77.28125 -108.984375 C 77.164062 -108.722656 76.660156 -108.632812 75.765625 -108.71875 C 72.140625 -111.394531 66.820312 -111.363281 59.8125 -108.625 C 52.800781 -105.894531 45.75 -100.503906 38.65625 -92.453125 C 31.570312 -84.410156 25.457031 -75.398438 20.3125 -65.421875 C 16.1875 -56.703125 13.160156 -47.5 11.234375 -37.8125 C 9.316406 -28.125 9.050781 -21.503906 10.4375 -17.953125 C 13.132812 -11.046875 16.441406 -8.359375 20.359375 -9.890625 C 24.285156 -11.421875 29.03125 -16.925781 34.59375 -26.40625 C 43.476562 -42.8125 49.328125 -54.570312 52.140625 -61.6875 C 62.109375 -86.90625 67.742188 -99.769531 69.046875 -100.28125 C 71.296875 -101.15625 74.265625 -101.554688 77.953125 -101.484375 C 81.640625 -101.421875 83.289062 -100.234375 82.90625 -97.921875 C 78.625 -80.753906 78.304688 -65.023438 81.953125 -50.734375 C 82.410156 -48.972656 83.148438 -46.78125 84.171875 -44.15625 C 85.191406 -41.539062 86.78125 -39.6875 88.9375 -38.59375 C 92.90625 -36.695312 96.804688 -38.003906 100.640625 -42.515625 C 104.484375 -47.023438 109.21875 -54.898438 114.84375 -66.140625 C 120.46875 -77.390625 124.441406 -87.769531 126.765625 -97.28125 C 127.140625 -98.5 127.882812 -99.054688 129 -98.953125 C 130.113281 -98.859375 130.742188 -98.625 130.890625 -98.25 C 131.984375 -95.445312 129.929688 -87.59375 124.734375 -74.6875 C 119.546875 -61.789062 115.269531 -52.75 111.90625 -47.5625 C 105.675781 -37.59375 98.828125 -31.148438 91.359375 -28.234375 C 84.253906 -25.460938 78.101562 -27.15625 72.90625 -33.3125 C 71.46875 -35.332031 70.203125 -37.75 69.109375 -40.5625 C 65.828125 -48.957031 64.140625 -58.519531 64.046875 -69.25 C 63.453125 -68.59375 61.457031 -63.503906 58.0625 -53.984375 C 54.664062 -44.472656 50.175781 -34.863281 44.59375 -25.15625 C 39.019531 -15.445312 32.960938 -9.316406 26.421875 -6.765625 Z M 26.421875 -6.765625 "/></g></g></g><g fill="#000000" fill-opacity="1"><g transform="translate(446.663557, 304.045539)"><g><path d="M 52.671875 -185.296875 C 53.304688 -190.273438 53.1875 -193.882812 52.3125 -196.125 C 50.78125 -200.050781 48.425781 -201.394531 45.25 -200.15625 C 42.632812 -199.132812 39.953125 -196.363281 37.203125 -191.84375 C 26.765625 -174.425781 19.425781 -150.457031 15.1875 -119.9375 C 11.851562 -95.382812 10.382812 -74.894531 10.78125 -58.46875 C 20.226562 -72.28125 29.070312 -92.207031 37.3125 -118.25 C 45.5625 -144.289062 50.679688 -166.640625 52.671875 -185.296875 Z M 10.953125 -45.609375 C 11.179688 -38.378906 11.617188 -33.648438 12.265625 -31.421875 C 12.921875 -29.203125 13.957031 -26.269531 15.375 -22.625 C 16.800781 -18.988281 19.035156 -16.039062 22.078125 -13.78125 C 27.222656 -9.976562 32.691406 -11.679688 38.484375 -18.890625 C 42.921875 -24.066406 47.890625 -32.304688 53.390625 -43.609375 C 58.890625 -54.910156 62.695312 -64.742188 64.8125 -73.109375 C 64.957031 -73.816406 65.410156 -74.316406 66.171875 -74.609375 C 67.847656 -75.265625 68.785156 -74.226562 68.984375 -71.5 C 68.148438 -65.363281 65.476562 -56.890625 60.96875 -46.078125 C 56.46875 -35.273438 52.023438 -26.378906 47.640625 -19.390625 C 43.265625 -12.410156 38 -7.71875 31.84375 -5.3125 C 17.632812 0.226562 7.832031 -3.910156 2.4375 -17.734375 C 2.21875 -18.296875 2 -18.863281 1.78125 -19.4375 C -2.570312 -32.800781 -3.648438 -55.144531 -1.453125 -86.46875 C 0.742188 -117.789062 4.265625 -142.15625 9.109375 -159.5625 L 13.53125 -173.890625 C 14.625 -177.117188 16.445312 -181.273438 19 -186.359375 C 23.6875 -196.367188 30 -202.921875 37.9375 -206.015625 C 45.882812 -209.117188 52.210938 -208.789062 56.921875 -205.03125 C 58.503906 -203.71875 59.914062 -201.46875 61.15625 -198.28125 C 62.394531 -195.101562 62.742188 -190.070312 62.203125 -183.1875 C 56.015625 -142.226562 38.929688 -96.367188 10.953125 -45.609375 Z M 10.953125 -45.609375 "/></g></g></g><g fill="#000000" fill-opacity="1"><g transform="translate(512.520391, 278.336285)"><g><path d="M 61.453125 -92.46875 C 46.566406 -91.394531 35.710938 -89.523438 28.890625 -86.859375 C 22.078125 -84.191406 16.703125 -78.804688 12.765625 -70.703125 C 8.835938 -62.597656 5.734375 -54.015625 3.453125 -44.953125 C 1.847656 -40.234375 0.300781 -38.117188 -1.1875 -38.609375 C -2.675781 -39.109375 -3.164062 -40.640625 -2.65625 -43.203125 L 6.046875 -76.328125 C 7.628906 -82.753906 10.488281 -88.390625 14.625 -93.234375 C 15.945312 -94.828125 17.351562 -95.914062 18.84375 -96.5 C 20.34375 -97.082031 21.945312 -97.648438 23.65625 -98.203125 C 25.375 -98.765625 26.859375 -99.238281 28.109375 -99.625 C 29.367188 -100.019531 32.160156 -100.46875 36.484375 -100.96875 C 40.804688 -101.46875 43.378906 -101.773438 44.203125 -101.890625 L 67.765625 -105.25 C 69.648438 -109.226562 72.066406 -112.546875 75.015625 -115.203125 C 77.960938 -117.859375 80.367188 -119.550781 82.234375 -120.28125 C 84.097656 -121.007812 85.898438 -120.53125 87.640625 -118.84375 C 89.578125 -114.425781 88.503906 -109.585938 84.421875 -104.328125 C 80.347656 -99.078125 77.144531 -95.992188 74.8125 -95.078125 C 72.476562 -94.171875 70.800781 -93.628906 69.78125 -93.453125 C 58.707031 -73.835938 49.929688 -57.703125 43.453125 -45.046875 C 36.984375 -32.398438 33.367188 -25.394531 32.609375 -24.03125 L 42.65625 -23.109375 C 58.46875 -20.671875 69.644531 -20.726562 76.1875 -23.28125 C 80.476562 -24.957031 84.65625 -28.3125 88.71875 -33.34375 C 92.789062 -38.375 97.914062 -47.316406 104.09375 -60.171875 C 110.269531 -73.023438 114.554688 -84.117188 116.953125 -93.453125 C 117.367188 -95.128906 118.273438 -95.96875 119.671875 -95.96875 C 121.066406 -95.96875 121.835938 -95.785156 121.984375 -95.421875 C 123.003906 -92.796875 120.066406 -83.351562 113.171875 -67.09375 C 106.273438 -50.84375 100.828125 -39.566406 96.828125 -33.265625 C 90.179688 -22.710938 82.46875 -15.71875 73.6875 -12.28125 C 64.90625 -8.851562 53.296875 -8.523438 38.859375 -11.296875 C 33.546875 -12.234375 29.210938 -12.585938 25.859375 -12.359375 C 19.929688 -2.722656 14.816406 2.929688 10.515625 4.609375 C 9.390625 5.046875 8.289062 5.257812 7.21875 5.25 C 5.394531 4.457031 4.046875 2.9375 3.171875 0.6875 C 2.296875 -1.550781 2.429688 -4.503906 3.578125 -8.171875 C 5.234375 -14.421875 9.519531 -18.894531 16.4375 -21.59375 C 19.800781 -22.90625 23.703125 -23.671875 28.140625 -23.890625 C 31.691406 -30.234375 33.601562 -33.890625 33.875 -34.859375 C 40.070312 -46.535156 49.265625 -65.738281 61.453125 -92.46875 Z M 61.453125 -92.46875 "/></g></g></g></g></g></g><path fill="#004aad" d="M 507.390625 971.632812 L 394.105469 1023.488281 L 386.128906 1005.9375 L 308.34375 834.8125 L 230.160156 1005.9375 L 180.300781 1115.632812 L 176.308594 1124.011719 L 0 1205.386719 L 305.949219 548.808594 L 309.9375 548.808594 Z M 861.207031 551.199219 C 745.929688 551.199219 653.785156 623 653.785156 731.5 C 653.785156 798.914062 688.886719 838.402344 733.164062 867.523438 L 869.585938 804.898438 C 815.335938 780.5625 781.03125 766.601562 781.03125 734.691406 C 781.03125 702.382812 816.132812 674.859375 863.203125 674.859375 C 898.304688 674.859375 934.605469 690.015625 953.351562 727.511719 L 1046.695312 662.492188 C 1017.574219 586.703125 946.570312 551.199219 861.207031 551.199219 Z M 861.207031 551.199219 " fill-opacity="1" fill-rule="nonzero"/><g clip-path="url(#610e332f28)"><path fill="#000000" d="M 1231.78125 764.210938 L 976.089844 873.507812 C 1043.105469 914.59375 1082.59375 963.257812 1082.59375 1038.648438 C 1082.59375 1153.128906 989.253906 1226.128906 854.425781 1226.128906 C 751.511719 1226.128906 675.324219 1183.046875 633.441406 1105.261719 L 734.359375 1034.261719 C 761.882812 1078.535156 802.171875 1098.878906 856.421875 1098.878906 C 915.855469 1098.878906 955.347656 1074.546875 955.347656 1041.042969 C 955.347656 999.15625 892.722656 965.25 831.691406 934.535156 L 549.273438 1055.402344 L 628.65625 1225.726562 L 489.042969 1225.726562 L 448.355469 1136.375 L 433.996094 1104.863281 L 151.179688 1225.726562 L 12.765625 1225.726562 L 189.074219 1144.753906 L 407.269531 1044.230469 L 520.15625 991.976562 L 745.929688 887.867188 L 882.351562 824.839844 L 1231.78125 663.6875 L 1363.015625 775.777344 L 1363.015625 707.167969 L 1410.085938 747.855469 L 1410.085938 817.660156 L 1556.476562 942.914062 Z M 1180.722656 965.25 L 1226.992188 965.25 L 1226.992188 918.980469 L 1180.722656 918.980469 Z M 1236.964844 965.25 L 1283.238281 965.25 L 1283.238281 918.980469 L 1236.964844 918.980469 Z M 1180.722656 911.003906 L 1226.992188 911.003906 L 1226.992188 864.730469 L 1180.722656 864.730469 Z M 1236.964844 911.003906 L 1283.238281 911.003906 L 1283.238281 864.730469 L 1236.964844 864.730469 Z M 1236.964844 911.003906 " fill-opacity="1" fill-rule="nonzero"/></g></svg>